<svg width="56" height="64" viewBox="0 0 56 64" fill="none" xmlns="http://www.w3.org/2000/svg">
<path d="M46.0549 45C46.0549 49.9706 42.0255 54 37.0549 54C32.0844 54 28.0549 49.9706 28.0549 45C28.0549 40.0294 32.0844 36 37.0549 36C42.0255 36 46.0549 40.0294 46.0549 45Z" fill="#D9D9D9"/>
<circle cx="45" cy="48" r="7" fill="#007BFF"/>
<path d="M51 29C51 38.9411 40.4787 47 27.5 47C14.5213 47 4 38.9411 4 29C4 19.0589 14.5213 11 27.5 11C40.4787 11 51 19.0589 51 29Z" fill="url(#paint0_linear_7_10397)"/>
<defs>
<linearGradient id="paint0_linear_7_10397" x1="9" y1="19" x2="48" y2="38" gradientUnits="userSpaceOnUse">
<stop stop-color="#F0F4F8"/>
<stop offset="1" stop-color="#D1D9E6"/>
</linearGradient>
</defs>
</svg>
