<svg width="64px" height="64px" viewBox="0 0 16.00 16.00" version="1.1" xmlns="http://www.w3.org/2000/svg" xmlns:xlink="http://www.w3.org/1999/xlink" fill="#e6e6e6" stroke="#e6e6e6" stroke-width="0.00016"><g id="SVGRepo_bgCarrier" stroke-width="0"></g><g id="SVGRepo_tracerCarrier" stroke-linecap="round" stroke-linejoin="round"></g><g id="SVGRepo_iconCarrier"> <rect width="16" height="16" id="icon-bound" fill="none"></rect> <path d="M4,8c0-1.103-0.897-2-2-2S0,6.897,0,8s0.897,2,2,2S4,9.103,4,8z M6,8c0,1.103,0.897,2,2,2s2-0.897,2-2S9.103,6,8,6 S6,6.897,6,8z M12,8c0,1.103,0.897,2,2,2s2-0.897,2-2s-0.897-2-2-2S12,6.897,12,8z"></path> </g></svg>
