<svg width="52" height="52" viewBox="0 0 52 52" fill="none" xmlns="http://www.w3.org/2000/svg">
<mask id="mask0_10_1386" style="mask-type:alpha" maskUnits="userSpaceOnUse" x="0" y="0" width="52" height="52">
<circle cx="26" cy="26" r="25.5" fill="white" stroke="white"/>
</mask>
<g mask="url(#mask0_10_1386)">
<path d="M25.5 1C39.0128 1 50 12.1745 50 26C50 39.8255 39.0128 51 25.5 51C11.9872 51 1 39.8255 1 26C1 12.1745 11.9872 1 25.5 1Z" stroke="white" stroke-width="2"/>
<path d="M37 26C37 33.0739 35.7294 39.4302 33.7168 43.9805C32.7099 46.2568 31.5371 48.0372 30.2852 49.2344C29.0382 50.4267 27.7607 51 26.5 51C25.2393 51 23.9618 50.4267 22.7148 49.2344C21.4629 48.0372 20.2901 46.2568 19.2832 43.9805C17.2706 39.4302 16 33.0739 16 26C16 18.9261 17.2706 12.5698 19.2832 8.01953C20.2901 5.74322 21.4629 3.96284 22.7148 2.76562C23.8839 1.64775 25.0799 1.07414 26.2637 1.00684L26.5 1C27.7607 1 29.0382 1.5733 30.2852 2.76562C31.5371 3.96284 32.7099 5.74322 33.7168 8.01953C35.7294 12.5698 37 18.9261 37 26Z" stroke="white" stroke-width="2"/>
<line x1="1" y1="26" x2="51" y2="26" stroke="white" stroke-width="2"/>
<line x1="1" y1="40" x2="46" y2="40" stroke="white" stroke-width="2"/>
<line x1="1" y1="12" x2="46" y2="12" stroke="white" stroke-width="2"/>
<path d="M43 26C43 32.9961 40.9806 39.2877 37.7666 43.8047C34.551 48.3238 30.2001 51 25.5 51C20.7999 51 16.449 48.3238 13.2334 43.8047C10.0194 39.2877 8 32.9961 8 26C8 19.0039 10.0194 12.7123 13.2334 8.19531C16.3485 3.81733 20.5291 1.16899 25.0605 1.00781L25.5 1C30.2001 1 34.551 3.67615 37.7666 8.19531C40.9806 12.7123 43 19.0039 43 26Z" stroke="white" stroke-width="2"/>
<line x1="26" y1="52" x2="26" y2="1" stroke="white" stroke-width="2"/>
</g>
</svg>
