<?xml version="1.0" standalone="no"?>
<!DOCTYPE svg PUBLIC "-//W3C//DTD SVG 20010904//EN"
 "http://www.w3.org/TR/2001/REC-SVG-20010904/DTD/svg10.dtd">
<svg version="1.0" xmlns="http://www.w3.org/2000/svg"
 width="128.000000pt" height="128.000000pt" viewBox="145 115 745 780"
 preserveAspectRatio="xMidYMid meet">

<g transform="translate(0.000000,1024.000000) scale(0.100000,-0.100000)"
fill="#007bff" stroke="none">
<path d="M2799 8865 c-500 -69 -857 -293 -1132 -710 -112 -171 -194 -380 -239
-610 l-22 -110 -4 -2140 c-3 -2264 -3 -2299 43 -2511 104 -482 413 -881 836
-1078 265 -123 502 -174 854 -182 396 -9 3943 -12 4100 -3 343 18 587 81 817
211 249 140 474 366 611 614 88 158 137 306 180 539 l21 120 4 2100 c2 1494 0
2142 -8 2245 -20 261 -69 442 -175 655 -83 166 -174 293 -300 419 -226 227
-496 366 -835 432 -91 18 -203 19 -2375 20 -1840 2 -2299 0 -2376 -11z m3616
-1443 c332 -63 576 -191 806 -421 281 -281 436 -612 479 -1022 13 -121 13
-769 0 -922 -31 -368 -154 -666 -384 -929 -210 -239 -483 -410 -787 -492 -223
-60 -214 -60 -990 -66 l-716 -5 -111 -85 c-60 -47 -274 -214 -474 -371 -498
-392 -451 -359 -506 -359 -63 0 -108 29 -133 85 -19 44 -19 46 1 317 35 467
35 474 17 502 -10 15 -72 53 -154 96 -243 125 -442 288 -587 481 -135 178
-211 334 -265 539 -52 202 -56 254 -56 760 0 436 1 473 22 586 130 711 679
1245 1363 1323 41 5 590 8 1220 7 1120 -2 1147 -3 1255 -24z"/>
<path d="M3817 5930 c-109 -28 -218 -123 -258 -228 -31 -80 -30 -195 1 -277
32 -83 122 -173 205 -205 84 -32 198 -32 279 0 81 31 175 125 207 206 34 88
33 209 -3 287 -37 80 -115 158 -189 192 -67 30 -177 41 -242 25z"/>
<path d="M5029 5927 c-104 -30 -190 -104 -238 -206 -23 -49 -26 -69 -26 -156
0 -88 3 -107 27 -158 112 -238 424 -287 604 -95 25 27 57 74 72 106 23 49 27
70 27 147 0 80 -3 97 -31 155 -61 128 -177 208 -316 216 -43 2 -92 -1 -119 -9z"/>
<path d="M6245 5926 c-139 -44 -227 -134 -261 -266 -33 -131 2 -258 100 -356
80 -79 148 -107 261 -107 150 0 271 75 337 211 31 62 33 74 32 162 -1 104 -15
148 -72 227 -82 111 -265 171 -397 129z"/>
</g>
</svg>
